<svg t="1681469562330" class="icon" viewBox="0 0 1024 1024" version="1.1" xmlns="http://www.w3.org/2000/svg" p-id="3992" width="64" height="64"><path d="M113.1 759.6h39c0 57.3 46.6 103.9 103.9 103.9s103.9-46.6 103.9-103.9h211.9c8.8 0 16-7.2 16-16V184.2c0-8.8-7.2-16-16-16H113.1c-8.8 0-16 7.2-16 16v559.4c0 8.8 7.2 16 16 16zM255.9 818c-32.2 0-58.4-26.2-58.4-58.4s26.2-58.4 58.4-58.4 58.4 26.2 58.4 58.4c0.1 32.2-26.1 58.4-58.4 58.4zM921.1 427.8L843 348.5c-3-3.1-7.1-4.8-11.4-4.8H640.8c-8.8 0-16 7.2-16 16v381.1c0 10.2 7.9 18.8 19.6 18.8h23.8c0 57.3 46.6 103.9 103.9 103.9 57.3 0 103.9-46.6 103.9-103.9h33.8c8.8 0 16-7.2 16-16V439.1c-0.1-4.2-1.7-8.3-4.7-11.3z m-224.3-26.6h111.3c4.3 0 8.4 1.7 11.4 4.8l45.6 46.3c2.9 3 4.6 7 4.6 11.2v98.9c0 8.8-7.2 16-16 16H696.8c-8.8 0-16-7.2-16-16V417.2c0-8.8 7.2-16 16-16zM772.1 818c-32.2 0-58.4-26.2-58.4-58.4s26.2-58.4 58.4-58.4 58.4 26.2 58.4 58.4-26.2 58.4-58.4 58.4z" fill="#1296db" p-id="3993"></path></svg>